<?xml version="1.0" encoding="iso-8859-1"?>
<!-- Generator: Adobe Illustrator 16.0.4, SVG Export Plug-In . SVG Version: 6.00 Build 0)  -->
<!DOCTYPE svg PUBLIC "-//W3C//DTD SVG 1.1//EN" "http://www.w3.org/Graphics/SVG/1.1/DTD/svg11.dtd">
<svg version="1.1" id="Layer_1" xmlns="http://www.w3.org/2000/svg" xmlns:xlink="http://www.w3.org/1999/xlink" x="0px" y="0px"
	 width="130px" height="20px" viewBox="0 0 130 20" style="enable-background:new 0 0 130 20;" xml:space="preserve">
<g>
	<g>
		<path style="fill:#FFFFFF;" d="M53.26,3.02l-2.277,6.236c-0.594,1.485-0.99,2.871-1.287,4.157l0,0
			c-0.297-1.286-0.792-2.672-1.287-4.157L46.133,3.02h-1.782L43.46,15.393h1.386l0.297-5.443c0.099-1.88,0.198-3.762,0.198-5.445
			h0.099c0.296,1.386,0.792,2.97,1.484,4.752l2.079,6.038h1.088l2.277-6.235c0.594-1.684,1.088-3.168,1.584-4.652h0.099
			c0,0.989,0.099,2.771,0.198,5.345l0.297,5.543h1.386L55.141,2.921H53.26V3.02z M65.83,6.483h-1.386v5.444
			c0,0.298-0.1,0.595-0.198,0.892c-0.198,0.396-0.396,0.791-0.792,1.09c-0.396,0.296-0.891,0.494-1.386,0.494
			c-1.385,0-2.078-0.99-2.078-2.969V6.483h-1.386v5.246c0,1.387,0.297,2.476,0.99,3.068c0.495,0.495,1.188,0.792,1.979,0.792
			c1.287,0,2.276-0.595,2.871-1.682h0.099l0.099,1.483h1.288c-0.1-0.791-0.1-1.584-0.1-2.377V6.483L65.83,6.483z M71.373,10.344
			c-0.594-0.198-1.09-0.495-1.287-0.693c-0.297-0.198-0.396-0.594-0.396-0.891c0-0.396,0.101-0.694,0.396-0.892
			c0.297-0.197,0.693-0.395,1.09-0.395c0.691,0,1.287,0.198,1.779,0.495l0.398-1.089c-0.597-0.396-1.287-0.495-2.08-0.495
			c-0.892,0-1.584,0.198-2.178,0.693c-0.494,0.495-0.791,1.089-0.791,1.782c0,1.089,0.791,1.881,2.274,2.475
			c0.596,0.198,1.09,0.494,1.287,0.792c0.299,0.297,0.396,0.593,0.396,0.989c0,0.396-0.197,0.793-0.494,0.988
			c-0.299,0.299-0.793,0.396-1.387,0.396c-0.693,0-1.385-0.198-2.078-0.593l-0.396,1.087c0.692,0.396,1.483,0.595,2.375,0.595
			c0.989,0,1.782-0.198,2.375-0.692c0.596-0.494,0.893-1.088,0.893-1.881C73.648,11.828,72.857,10.938,71.373,10.344z
			 M75.926,15.393h1.385v-8.91h-1.385V15.393z M76.619,2.921c-0.297,0-0.496,0.099-0.693,0.297
			c-0.197,0.198-0.297,0.396-0.297,0.692c0,0.297,0.1,0.593,0.297,0.693s0.396,0.198,0.594,0.198c0.199,0,0.496-0.099,0.595-0.198
			c0.196-0.198,0.297-0.396,0.297-0.792c0-0.297-0.101-0.495-0.297-0.693C77.113,3.02,76.916,2.921,76.619,2.921z M84.338,14.402
			c-0.889,0-1.682-0.299-2.275-0.99c-0.594-0.594-0.891-1.484-0.891-2.475c0-0.989,0.297-1.88,0.891-2.476
			c0.595-0.692,1.388-0.989,2.375-0.989c0.693,0,1.388,0.099,1.881,0.395l0.396-1.089c-0.596-0.296-1.287-0.495-2.277-0.495
			c-1.385,0-2.574,0.396-3.364,1.287c-0.892,0.891-1.287,1.98-1.287,3.365c0,1.387,0.396,2.476,1.188,3.268
			c0.793,0.791,1.881,1.287,3.168,1.287c0.989,0,1.782-0.198,2.573-0.496l-0.297-1.087C85.627,14.303,84.934,14.402,84.338,14.402z"
			/>
	</g>
	<rect style="fill:none;" width="130" height="20"/>
</g>
</svg>
